<?xml version="1.0" encoding="UTF-8"?>
<svg width="297px" height="206px" viewBox="0 0 297 206" version="1.1" xmlns="http://www.w3.org/2000/svg" xmlns:xlink="http://www.w3.org/1999/xlink">
    <!-- Generator: Sketch 51.1 (57501) - http://www.bohemiancoding.com/sketch -->
    <title>dream design final</title>
    <desc>Created with Sketch.</desc>
    <defs></defs>
    <g id="Page-1" stroke="none" stroke-width="1" fill="none" fill-rule="evenodd" stroke-linecap="round" stroke-linejoin="round">
        <g id="dream-design-final" transform="translate(2.000000, 2.000000)" stroke="#B8D9E0" stroke-width="3">
            <path d="M108.435043,137.256494 C109.085152,135.797382 109.632336,135.051787 110.647068,133.818734" id="Stroke-1"></path>
            <path d="M132.52082,123.231554 C124.071651,123.546583 116.139615,127.385836 110.647243,133.81876" id="Stroke-3"></path>
            <path d="M162.482599,144.328198 C159.678063,135.484057 152.975876,128.41556 144.298067,125.148975" id="Stroke-5"></path>
            <path d="M9.35200906,99.8093027 L9.35200906,57.0697618" id="Stroke-7"></path>
            <path d="M0.167761282,109.000278 L37.0672297,109.001028" id="Stroke-9"></path>
            <path d="M37.0672797,109.001004 C53.9328105,109.001255 67.6053926,95.3186372 67.605643,78.4403593 C67.6061438,61.5615801 53.9340626,47.878461 37.0685319,47.8779598 C36.9986626,47.8779598 36.928543,47.8782104 36.8586738,47.8787117" id="Stroke-11"></path>
            <path d="M36.858799,47.8787599 L0.167686154,47.8780099" id="Stroke-13"></path>
            <path d="M0.167761282,99.8093027 L0.167761282,57.0697618" id="Stroke-15"></path>
            <path d="M0.167761282,118.243131 L42.4266254,118.243131" id="Stroke-17"></path>
            <path d="M60.6079515,110.45969 C78.2786062,97.4489854 82.0643165,72.5656429 69.0633806,54.88137 C61.5255174,44.6279903 49.5370592,38.6075883 36.8178541,38.6875362" id="Stroke-19"></path>
            <path d="M36.8178291,38.6875514 L0.167786325,38.6835514" id="Stroke-21"></path>
            <path d="M160.617591,55.0079834 L144.761032,55.0079834" id="Stroke-23"></path>
            <path d="M144.761083,55.0079834 C143.437324,55.0079834 142.114817,55.0942334 140.802077,55.2659834" id="Stroke-25"></path>
            <path d="M164.115511,45.837835 L143.472534,45.837835" id="Stroke-27"></path>
            <path d="M187.32945,86.5088057 L219.049079,86.5088057" id="Stroke-29"></path>
            <path d="M92.192475,67.7959868 C107.633575,74.4800315 125.565175,67.3716866 132.244072,51.918436 C138.92322,36.4656866 131.820099,18.5202672 116.378999,11.8362226 C100.938149,5.15217792 83.006299,12.2605228 76.3274015,27.7132722 C74.6760836,31.5344806 73.8241297,35.6531754 73.8241297,39.8159794" id="Stroke-31"></path>
            <path d="M73.8241047,39.8160797 L73.8241047,63.3671243" id="Stroke-33"></path>
            <path d="M60.6079515,97.9078712 L60.6079515,154.73804" id="Stroke-35"></path>
            <path d="M154.682664,151.245721 C153.446053,139.619192 143.025771,131.197346 131.408196,132.434909 C126.061823,133.004569 121.132911,135.589718 117.622922,139.665807" id="Stroke-37"></path>
            <path d="M117.622847,139.665782 C114.651025,143.34138 115.219495,148.732224 118.892513,151.706336 C120.026949,152.624859 121.377003,153.237626 122.814706,153.486492" id="Stroke-39"></path>
            <path d="M122.814807,153.486617 L148.618089,153.486617" id="Stroke-41"></path>
            <path d="M156.169826,173.699975 C160.704064,168.820397 160.427091,161.186251 155.551271,156.648769 C153.642514,154.872372 151.209862,153.762626 148.61819,153.486693" id="Stroke-43"></path>
            <path d="M103.394466,153.486617 C103.394466,170.207756 116.93908,183.762808 133.647092,183.762808 C142.242259,183.762808 150.431484,180.104002 156.169776,173.6999" id="Stroke-45"></path>
            <path d="M103.394466,153.486617 C103.394466,141.794426 93.9233037,132.315965 82.2401165,132.315965 C70.5569293,132.315965 61.0857669,141.794426 61.0857669,153.486617 C61.0857669,165.178808 70.5569293,174.65727 82.2401165,174.65727 C87.3060114,174.65727 92.2038695,172.837766 96.0429208,169.529828" id="Stroke-47"></path>
            <path d="M96.0429208,169.529728 L101.979552,176.429807" id="Stroke-49"></path>
            <path d="M56.3105681,169.083323 C64.9177562,183.415048 83.5044741,188.05002 97.8249117,179.436199 C99.2921656,178.553514 100.682037,177.547775 101.979501,176.429757" id="Stroke-51"></path>
            <path d="M143.938854,147.202738 C140.470936,141.514659 133.052277,139.716708 127.368327,143.187048 C125.730532,144.187024 124.354684,145.563681 123.355479,147.202738" id="Stroke-53"></path>
            <path d="M74.330569,162.592156 C78.8500314,166.523888 85.5682459,166.539928 90.1062399,162.629498" id="Stroke-55"></path>
            <path d="M64.7215213,38.0421638 L64.7215213,49.9022705" id="Stroke-57"></path>
            <path d="M159.575789,76.3018911 L130.637155,76.3018911" id="Stroke-59"></path>
            <path d="M159.575789,86.5088057 L136.525704,86.5088057" id="Stroke-61"></path>
            <path d="M159.575789,64.1994345 L144.761007,64.1994345" id="Stroke-63"></path>
            <path d="M144.761083,64.1994345 C138.336369,64.1994345 132.255492,67.1048762 128.215848,72.1045015" id="Stroke-65"></path>
            <path d="M283.493552,183.762708 L283.493552,153.486517" id="Stroke-67"></path>
            <path d="M283.493552,153.486617 C283.493552,139.372933 276.442269,132.315965 262.339203,132.315965 C248.236637,132.315965 241.185104,139.372933 241.185104,153.486617" id="Stroke-69"></path>
            <path d="M241.185029,153.486617 L241.185029,183.762808" id="Stroke-71"></path>
            <path d="M241.185029,183.762708 L250.283555,183.762708" id="Stroke-73"></path>
            <path d="M250.283555,183.762708 L250.283555,153.486517" id="Stroke-75"></path>
            <path d="M250.283555,153.486617 C250.283555,145.443208 254.302163,141.421503 262.339378,141.421503 C270.376594,141.421503 274.395201,145.443208 274.395201,153.486617" id="Stroke-77"></path>
            <path d="M274.395251,153.486617 L274.395251,183.762808" id="Stroke-79"></path>
            <path d="M274.395251,183.762708 L292.592054,183.762708" id="Stroke-81"></path>
            <path d="M292.592079,183.762708 L292.592079,71.8582169" id="Stroke-83"></path>
            <path d="M237.265239,53.1525658 C231.008062,32.1097295 208.890068,20.1275707 187.863186,26.3895707 C169.988934,31.7127469 158.221352,48.7634516 159.575663,67.3780273" id="Stroke-85"></path>
            <path d="M159.575789,67.3779521 L159.575789,96.71557" id="Stroke-87"></path>
            <path d="M159.575789,96.7154697 L142.414002,96.7154697" id="Stroke-89"></path>
            <path d="M73.8241047,93.5119903 L73.8241047,118.19208" id="Stroke-91"></path>
            <path d="M73.8241047,118.191979 L60.6080517,118.191979" id="Stroke-93"></path>
            <path d="M227.53233,53.104597 C221.248607,37.4410759 203.466763,29.8415151 187.815304,36.1300809 C176.880394,40.5234556 169.446959,50.821195 168.714208,62.5908278" id="Stroke-95"></path>
            <path d="M168.714183,62.5907275 L168.714183,96.4578069" id="Stroke-97"></path>
            <path d="M168.714183,96.4577568 C162.952351,99.8378734 161.019803,107.252727 164.397817,113.019251 C167.775581,118.785524 175.184725,120.719561 180.946558,117.338943 C186.70839,113.958576 188.640938,106.543722 185.263174,100.777449 C183.640655,98.0080943 180.985123,95.996866 177.880826,95.1871117" id="Stroke-99"></path>
            <path d="M177.880701,95.1870365 L177.880701,63.1622672" id="Stroke-101"></path>
            <path d="M219.138356,56.8585139 C214.926419,45.8347273 202.582103,40.3150648 191.566555,44.530499 C183.750968,47.520901 178.401089,54.8046801 177.880701,63.1621169" id="Stroke-103"></path>
            <path d="M251.228518,63.0153536 C244.594447,52.5481948 230.737801,49.4452643 220.278702,56.0846985 C219.89079,56.3308077 219.510642,56.5889467 219.138256,56.8586141" id="Stroke-105"></path>
            <path d="M292.592079,75.0368097 C292.592079,62.6416285 282.551695,52.5935069 270.166059,52.5935069 C262.486955,52.5935069 255.341762,56.5257402 251.228493,63.0153035" id="Stroke-107"></path>
            <path d="M83.0082273,123.220276 C74.6021324,123.006497 66.4862828,126.304159 60.6080016,132.321303" id="Stroke-109"></path>
            <path d="M83.0082273,123.220276 L83.0082273,39.8160797" id="Stroke-111"></path>
            <path d="M92.192475,57.3362464 C101.861225,64.0202911 115.11359,61.5947873 121.792487,51.9185864 C128.471384,42.2423854 126.047749,28.9798072 116.378999,22.2960132 C106.7105,15.6117179 93.4581349,18.0372216 86.778987,27.7134226 C84.3235468,31.2709784 83.0083024,35.4921769 83.0083024,39.8161298" id="Stroke-113"></path>
            <path d="M92.192475,57.3362464 L92.192475,124.895723" id="Stroke-115"></path>
            <path d="M92.192475,124.895823 C92.6863178,125.067999 93.175152,125.252706 93.659228,125.450195 C106.215155,130.571873 112.492867,139.917505 112.492867,153.486592" id="Stroke-117"></path>
            <path d="M112.492867,153.486617 C112.492867,165.178808 121.96403,174.65727 133.647217,174.65727 C139.797963,174.65727 145.64419,171.977888 149.662547,167.317853" id="Stroke-119"></path>
            <path d="M149.662622,167.317728 C150.674849,166.035053 150.455976,164.173696 149.174038,163.160939 C148.821436,162.8825 148.409984,162.687767 147.970985,162.592281" id="Stroke-121"></path>
            <path d="M147.97101,162.592156 L125.737569,162.592156" id="Stroke-123"></path>
            <path d="M113.109895,158.562156 C116.636413,161.495917 121.165141,162.941245 125.737694,162.592131" id="Stroke-125"></path>
            <path d="M113.109895,158.562156 C115.146371,166.815084 120.28539,171.970094 128.526954,174.027687 C136.768769,176.08528 143.72514,173.949493 149.396318,167.621079" id="Stroke-127"></path>
            <path d="M292.592079,153.486617 C292.592079,145.299352 289.278925,137.4612 283.407906,131.759337" id="Stroke-129"></path>
            <path d="M283.407956,131.759237 L283.407956,75.0368347" id="Stroke-131"></path>
            <path d="M283.407956,75.0368097 C283.407956,67.7179437 277.479339,61.7847576 270.166109,61.7847576 C265.631872,61.7847576 261.412922,64.1067551 258.984278,67.9387402" id="Stroke-133"></path>
            <polyline id="Stroke-135" points="258.984178 67.938665 251.228442 80.1749529 243.472958 67.938665"></polyline>
            <path d="M243.472858,67.938665 C239.555423,61.7581166 231.373961,59.9258313 225.197922,63.8462854 C221.705212,66.063273 219.44836,69.7862382 219.097011,73.9106973" id="Stroke-137"></path>
            <path d="M191.192968,176.429883 C202.959547,186.56923 220.485956,186.146935 231.751681,175.453215" id="Stroke-139"></path>
            <path d="M198.329421,188.704139 C207.712934,195.669881 220.962294,193.704266 227.922672,184.313271 C229.863734,181.694539 231.17422,178.662283 231.751706,175.45309" id="Stroke-141"></path>
            <path d="M198.329421,188.704139 L195.167025,197.541013" id="Stroke-143"></path>
            <path d="M195.167025,197.540963 C209.427109,206.254782 228.045631,201.74938 236.75274,187.478305 C239.651436,182.727045 241.185054,177.267782 241.185054,171.701002" id="Stroke-145"></path>
            <path d="M241.185029,171.700877 L241.185029,153.486542" id="Stroke-147"></path>
            <path d="M42.4265252,108.52668 L42.4265252,125.713973" id="Stroke-149"></path>
            <path d="M51.5172384,105.36335 L51.5172384,131.82535" id="Stroke-151"></path>
            <path d="M51.5172384,131.825325 C39.5630888,120.143159 20.4096538,120.370973 8.73623325,132.334085 C-2.93693684,144.297447 -2.70929838,163.465643 9.2448512,175.147809 C21.1987503,186.830226 40.3524358,186.602162 52.0256059,174.63905 C57.8472905,168.672531 60.9523392,160.567469 60.6080016,152.235345" id="Stroke-153"></path>
            <path d="M219.049104,73.9107223 L219.049104,124.32075" id="Stroke-155"></path>
            <path d="M228.233226,128.649991 C225.437456,126.699412 222.332407,125.23579 219.049054,124.320775" id="Stroke-157"></path>
            <path d="M228.233226,128.649991 L228.233226,74.2202635" id="Stroke-159"></path>
            <path d="M228.233226,74.2203387 L228.588976,73.3729913" id="Stroke-161"></path>
            <path d="M235.717198,72.8617509 C234.516899,70.9678129 232.009871,70.4064233 230.117642,71.6076467 C229.446497,72.0337012 228.91509,72.6477211 228.589535,73.3730164" id="Stroke-163"></path>
            <polyline id="Stroke-165" points="235.717198 72.8617509 251.228417 97.3345772 266.739637 72.8617509"></polyline>
            <path d="M274.223583,75.0368097 C274.223583,72.7942588 272.406983,70.9762588 270.166159,70.9762588 C268.776788,70.9762588 267.484082,71.6875194 266.739562,72.8616757" id="Stroke-167"></path>
            <path d="M274.223583,75.0368097 L274.223583,125.644576" id="Stroke-169"></path>
            <path d="M274.223583,125.644501 C260.978982,119.982236 245.582207,124.449293 237.417524,136.322933" id="Stroke-171"></path>
            <path d="M237.417599,136.323033 L237.417599,92.7040655" id="Stroke-173"></path>
            <polyline id="Stroke-175" points="237.417599 92.7040655 251.228417 114.494252 265.039486 92.7040655 265.039486 123.331376"></polyline>
            <path d="M197.129624,169.529728 C205.983232,177.158611 219.340025,176.160391 226.963284,167.300209 C234.586042,158.439527 233.58859,145.07219 224.734982,137.443557 C215.881624,129.814423 202.52458,130.812894 194.901572,139.673075 C191.595931,143.515085 189.778078,148.416718 189.778078,153.486517" id="Stroke-177"></path>
            <path d="M189.777953,153.486617 L189.777953,174.65727" id="Stroke-179"></path>
            <path d="M180.679677,183.762708 C185.704502,183.762708 189.777953,179.685867 189.777953,174.65717" id="Stroke-181"></path>
            <path d="M180.679677,183.762708 L171.581151,183.762708" id="Stroke-183"></path>
            <path d="M162.482599,174.65717 C162.482599,179.685867 166.556301,183.762708 171.581126,183.762708" id="Stroke-185"></path>
            <path d="M162.482599,174.65717 L162.482599,132.395311" id="Stroke-187"></path>
            <path d="M171.581126,123.289798 C166.556301,123.289798 162.482599,127.366639 162.482599,132.395336" id="Stroke-189"></path>
            <path d="M171.581126,123.289798 L180.679652,123.289798" id="Stroke-191"></path>
            <path d="M189.762301,131.858357 C189.478066,127.046697 185.496272,123.289898 180.679552,123.289898" id="Stroke-193"></path>
            <path d="M209.864731,123.229348 C202.323111,123.495758 195.153126,126.573626 189.762427,131.858457" id="Stroke-195"></path>
            <path d="M209.864731,123.229348 L209.864731,96.7154697" id="Stroke-197"></path>
            <path d="M209.864731,96.7154697 L187.329525,96.7154697" id="Stroke-199"></path>
            <path d="M187.32945,96.7154697 L187.32945,61.7782414" id="Stroke-201"></path>
            <path d="M211.05669,61.7781663 C209.559635,55.2209355 203.0345,51.1200347 196.482569,52.6179926 C191.927046,53.6595707 188.370226,57.2196328 187.32945,61.7781663" id="Stroke-203"></path>
            <path d="M211.05669,61.7781663 L211.05669,76.301866" id="Stroke-205"></path>
            <path d="M211.05669,76.3018911 L187.32945,76.3018911" id="Stroke-207"></path>
            <path d="M37.0776725,90.6183529 L18.5460485,90.6183529" id="Stroke-209"></path>
            <path d="M159.575789,115.978475 L144.761007,115.978475" id="Stroke-211"></path>
            <path d="M142.888612,115.920958 C143.511926,115.959208 144.136492,115.978208 144.761058,115.978208" id="Stroke-213"></path>
            <path d="M114.30809,84.7625333 C113.91542,101.149345 126.540715,114.913414 142.888612,115.920908" id="Stroke-215"></path>
            <path d="M37.0579889,90.6183567 C43.7789581,90.6236159 49.2317632,85.1756308 49.2372726,78.4492313 C49.2427821,71.7230824 43.7987419,66.2660749 37.0777726,66.2608119 L37.068006,66.2608119" id="Stroke-217"></path>
            <path d="M37.0679058,66.2606866 L18.5362819,66.2606866" id="Stroke-219"></path>
            <path d="M92.192475,77.6017586 C98.245805,79.5420613 104.676779,79.9974385 110.942972,78.9292945" id="Stroke-221"></path>
            <path d="M110.942872,78.9292444 L130.167178,112.252227" id="Stroke-223"></path>
            <path d="M148.224368,106.787275 L127.952274,71.647796" id="Stroke-225"></path>
            <path d="M127.952224,71.647796 C145.518951,58.5671682 149.163671,33.7116447 136.093116,16.1311285 C123.022311,-1.44888635 98.1859278,-5.09641489 80.6194509,7.98446352 C71.0643953,15.0990739 65.2119081,26.1353916 64.6794996,38.0421136" id="Stroke-227"></path>
            <path d="M105.574436,79.4716119 C102.251265,101.130473 117.101858,121.384356 138.74404,124.710339 C140.309962,124.950934 141.888906,125.097297 143.472358,125.148925" id="Stroke-229"></path>
            <path d="M143.472484,125.148874 L159.575714,125.148874" id="Stroke-231"></path>
            <path d="M159.575789,125.148874 L159.575789,106.787175" id="Stroke-233"></path>
            <path d="M159.575789,106.787275 L137.61932,106.787275" id="Stroke-235"></path>
            <path d="M137.61937,106.787275 L119.998551,76.2434213" id="Stroke-237"></path>
            <path d="M18.5362819,99.8093021 L36.8901024,99.8090521" id="Stroke-239"></path>
            <path d="M36.8901024,99.8090521 C46.515528,99.8749653 53.1563605,95.4637965 56.8131007,86.5760471" id="Stroke-241"></path>
            <path d="M56.8131257,86.5761223 C57.8751881,83.9949834 58.4213702,81.2308916 58.4213702,78.4394821" id="Stroke-243"></path>
            <path d="M58.4214703,78.4395072 C58.4214703,75.6483484 57.8750379,72.884006 56.8132259,70.3031176" id="Stroke-245"></path>
            <path d="M56.8131257,70.3031677 C53.1563856,61.4151677 46.5153026,57.0042496 36.8901274,57.0699122" id="Stroke-247"></path>
            <path d="M36.8901024,57.0699617 L18.5362819,57.0697117" id="Stroke-249"></path>
            <path d="M18.5362819,57.0697367 L18.5362819,99.8092777" id="Stroke-251"></path>
            <path d="M171.921306,106.8984 C171.921306,105.29042 173.223779,103.987194 174.83027,103.987194 C176.437012,103.987194 177.739234,105.29042 177.739234,106.8984 C177.739234,108.50613 176.437012,109.809606 174.83027,109.809606 C173.223779,109.809606 171.921306,108.50613 171.921306,106.8984 Z" id="Stroke-253"></path>
            <path d="M92.192475,39.8160797 C92.192475,33.132035 97.6069648,27.7133725 104.285862,27.7133725 C110.96476,27.7133725 116.378999,33.132035 116.378999,39.8160797 C116.378999,46.5001243 110.96476,51.9185362 104.285862,51.9185362 C97.6069648,51.9185362 92.192475,46.5001243 92.192475,39.8160797 Z" id="Stroke-255"></path>
            <path d="M171.581126,168.664311 C171.581126,171.974003 174.262201,174.657145 177.569344,174.657145" id="Stroke-257"></path>
            <path d="M177.569369,174.65717 L180.679677,174.65717" id="Stroke-259"></path>
            <path d="M180.679677,174.65717 L180.679677,138.388145" id="Stroke-261"></path>
            <path d="M180.679677,138.388195 C180.679677,135.078503 177.998602,132.395361 174.691208,132.395361" id="Stroke-263"></path>
            <path d="M174.691183,132.395336 L171.581126,132.395336" id="Stroke-265"></path>
            <path d="M171.581126,132.395336 L171.581126,168.664361" id="Stroke-267"></path>
            <path d="M198.952059,153.486617 C198.952059,146.864977 204.315712,141.49694 210.932253,141.49694 C217.549044,141.49694 222.912697,146.864977 222.912697,153.486617 C222.912697,160.108258 217.549044,165.476295 210.932253,165.476295 C204.315712,165.476295 198.952059,160.108258 198.952059,153.486617 Z" id="Stroke-269"></path>
            <path d="M18.3252217,153.486617 C18.3252217,146.823124 23.7226824,141.421503 30.3810448,141.421503 C37.0391568,141.421503 42.4368679,146.823124 42.4368679,153.486617 C42.4368679,160.150111 37.0391568,165.551732 30.3810448,165.551732 C23.7226824,165.551732 18.3252217,160.150111 18.3252217,153.486617 Z" id="Stroke-271"></path>
            <path d="M9.22667017,153.486617 C9.22667017,141.794426 18.6978326,132.315965 30.3810197,132.315965 C42.0642069,132.315965 51.5351189,141.794426 51.5351189,153.486617 C51.5351189,165.178808 42.0642069,174.65727 30.3810197,174.65727 C18.6978326,174.65727 9.22667017,165.178808 9.22667017,153.486617 Z" id="Stroke-273"></path>
            <path d="M70.1843435,153.486617 L94.2959897,153.486617" id="Stroke-275"></path>
            <path d="M94.2959145,153.486617 C94.2959145,146.823124 88.8984538,141.421503 82.2400915,141.421503 C75.5817291,141.421503 70.1842684,146.823124 70.1842684,153.486617" id="Stroke-277"></path>
        </g>
    </g>
</svg>